<svg width="249" height="29" viewBox="0 0 249 29" fill="none" xmlns="http://www.w3.org/2000/svg">
<path d="M0.257266 1.2846H7.21727V16.7046H13.6373V22.4646H0.257266V1.2846ZM104.425 6.7446H95.3045V1.2846H115.615L106.225 16.9746H115.645V22.4646H94.7645L104.425 6.7446Z" fill="#FCEF81"/>
<path d="M32.8923 7.2546V22.4646H26.4423V20.4846C25.0623 22.1646 23.2723 23.0046 21.0723 23.0046C19.0923 23.0046 17.5923 22.4746 16.5723 21.4146C15.5523 20.3546 15.0423 18.8046 15.0423 16.7646V7.2546H21.4923V15.5046C21.4923 16.4646 21.6823 17.1646 22.0623 17.6046C22.4623 18.0246 23.0523 18.2346 23.8323 18.2346C24.7123 18.2346 25.3623 17.9746 25.7823 17.4546C26.2223 16.9346 26.4423 16.1746 26.4423 15.1746V7.2546H32.8923ZM44.3158 23.0046C42.1958 23.0046 40.3358 22.6246 38.7358 21.8646C37.1558 21.1046 36.0258 19.9546 35.3458 18.4146C34.8658 17.3946 34.6258 16.2146 34.6258 14.8746C34.6258 13.5146 34.8658 12.3246 35.3458 11.3046C36.0058 9.7846 37.1158 8.6446 38.6758 7.8846C40.2558 7.1246 42.1358 6.7446 44.3158 6.7446C47.6558 6.7446 50.2558 7.5746 52.1158 9.2346C52.7358 9.8146 53.2058 10.4646 53.5258 11.1846C53.8658 11.8846 54.0658 12.6746 54.1258 13.5546H47.1958C47.1358 12.9746 46.8858 12.4946 46.4458 12.1146C45.9658 11.6946 45.2658 11.4846 44.3458 11.4846C43.7258 11.4846 43.1958 11.6146 42.7558 11.8746C42.3158 12.1146 41.9958 12.4746 41.7958 12.9546C41.6758 13.1946 41.5958 13.4546 41.5558 13.7346C41.5158 14.0146 41.4958 14.3846 41.4958 14.8446C41.4958 15.3046 41.5158 15.6746 41.5558 15.9546C41.5958 16.2346 41.6758 16.4946 41.7958 16.7346C42.0158 17.2346 42.3458 17.6146 42.7858 17.8746C43.2258 18.1146 43.7458 18.2346 44.3458 18.2346C45.2658 18.2346 45.9758 18.0146 46.4758 17.5746C46.6758 17.3746 46.8358 17.1446 46.9558 16.8846C47.0958 16.6046 47.1758 16.3246 47.1958 16.0446H54.1858C54.0658 17.8446 53.3658 19.3146 52.0858 20.4546C51.1658 21.2946 50.0458 21.9346 48.7258 22.3746C47.4258 22.7946 45.9558 23.0046 44.3158 23.0046ZM67.105 22.4646L62.365 16.5546V22.4646H55.915V1.2846H62.365V11.8446L66.595 7.2546H74.725L67.975 14.0646L75.325 22.4646H67.105ZM94.9279 7.2546L88.1479 22.4346L85.4479 28.5546H79.0579L81.7879 22.4646L75.0679 7.2546H81.8479L85.1779 16.0746L88.3279 7.2546H94.9279ZM120.473 6.0546C119.873 6.0546 119.323 5.9346 118.823 5.6946C118.343 5.4346 117.963 5.0746 117.683 4.6146C117.423 4.1546 117.293 3.6346 117.293 3.0546C117.293 2.4746 117.423 1.9646 117.683 1.5246C117.963 1.0646 118.343 0.704599 118.823 0.444599C119.323 0.184599 119.873 0.0545985 120.473 0.0545985C121.073 0.0545985 121.613 0.184599 122.093 0.444599C122.593 0.704599 122.973 1.0646 123.233 1.5246C123.513 1.9646 123.653 2.4746 123.653 3.0546C123.653 3.6346 123.513 4.1546 123.233 4.6146C122.973 5.0746 122.593 5.4346 122.093 5.6946C121.613 5.9346 121.073 6.0546 120.473 6.0546ZM117.233 7.2546H123.683V22.4646H117.233V7.2546ZM138.077 6.7446C140.037 6.7446 141.527 7.2746 142.547 8.3346C143.587 9.3946 144.107 10.9346 144.107 12.9546V22.4646H137.657V14.2146C137.657 13.2546 137.457 12.5646 137.057 12.1446C136.657 11.7046 136.067 11.4846 135.287 11.4846C134.427 11.4846 133.777 11.7446 133.337 12.2646C132.917 12.7846 132.707 13.5446 132.707 14.5446V22.4646H126.257V7.2546H132.707V9.2046C134.087 7.5646 135.877 6.7446 138.077 6.7446ZM155.59 23.0046C153.33 23.0046 151.39 22.5946 149.77 21.7746C148.17 20.9546 147.02 19.7546 146.32 18.1746C145.9 17.2546 145.69 16.1546 145.69 14.8746C145.69 14.2146 145.74 13.6146 145.84 13.0746C145.94 12.5346 146.1 12.0246 146.32 11.5446C147.02 9.9646 148.17 8.7746 149.77 7.9746C151.39 7.1546 153.33 6.7446 155.59 6.7446C157.85 6.7446 159.78 7.1446 161.38 7.9446C162.98 8.7446 164.12 9.9046 164.8 11.4246C165.24 12.4246 165.46 13.5746 165.46 14.8746C165.46 16.1546 165.24 17.2946 164.8 18.2946C164.12 19.8146 162.97 20.9846 161.35 21.8046C159.75 22.6046 157.83 23.0046 155.59 23.0046ZM155.59 18.2346C157.01 18.2346 157.94 17.7446 158.38 16.7646C158.58 16.3046 158.68 15.6746 158.68 14.8746C158.68 14.0346 158.58 13.4046 158.38 12.9846C157.94 11.9846 157.01 11.4846 155.59 11.4846C154.89 11.4846 154.3 11.6146 153.82 11.8746C153.36 12.1346 153.02 12.5146 152.8 13.0146C152.6 13.4346 152.5 14.0546 152.5 14.8746C152.5 15.6746 152.6 16.2846 152.8 16.7046C153.02 17.2046 153.36 17.5846 153.82 17.8446C154.3 18.1046 154.89 18.2346 155.59 18.2346ZM171.504 23.0946C170.824 23.0946 170.214 22.9446 169.674 22.6446C169.154 22.3646 168.744 21.9646 168.444 21.4446C168.144 20.9246 167.994 20.3246 167.994 19.6446C167.994 18.9446 168.134 18.3346 168.414 17.8146C168.714 17.2746 169.124 16.8646 169.644 16.5846C170.184 16.3046 170.804 16.1646 171.504 16.1646C172.184 16.1646 172.784 16.3046 173.304 16.5846C173.844 16.8646 174.264 17.2746 174.564 17.8146C174.864 18.3346 175.014 18.9446 175.014 19.6446C175.014 20.3246 174.864 20.9246 174.564 21.4446C174.264 21.9646 173.844 22.3646 173.304 22.6446C172.784 22.9446 172.184 23.0946 171.504 23.0946ZM187.255 23.0046C185.135 23.0046 183.275 22.6246 181.675 21.8646C180.095 21.1046 178.965 19.9546 178.285 18.4146C177.805 17.3946 177.565 16.2146 177.565 14.8746C177.565 13.5146 177.805 12.3246 178.285 11.3046C178.945 9.7846 180.055 8.6446 181.615 7.8846C183.195 7.1246 185.075 6.7446 187.255 6.7446C190.595 6.7446 193.195 7.5746 195.055 9.2346C195.675 9.8146 196.145 10.4646 196.465 11.1846C196.805 11.8846 197.005 12.6746 197.065 13.5546H190.135C190.075 12.9746 189.825 12.4946 189.385 12.1146C188.905 11.6946 188.205 11.4846 187.285 11.4846C186.665 11.4846 186.135 11.6146 185.695 11.8746C185.255 12.1146 184.935 12.4746 184.735 12.9546C184.615 13.1946 184.535 13.4546 184.495 13.7346C184.455 14.0146 184.435 14.3846 184.435 14.8446C184.435 15.3046 184.455 15.6746 184.495 15.9546C184.535 16.2346 184.615 16.4946 184.735 16.7346C184.955 17.2346 185.285 17.6146 185.725 17.8746C186.165 18.1146 186.685 18.2346 187.285 18.2346C188.205 18.2346 188.915 18.0146 189.415 17.5746C189.615 17.3746 189.775 17.1446 189.895 16.8846C190.035 16.6046 190.115 16.3246 190.135 16.0446H197.125C197.005 17.8446 196.305 19.3146 195.025 20.4546C194.105 21.2946 192.985 21.9346 191.665 22.3746C190.365 22.7946 188.895 23.0046 187.255 23.0046ZM208.149 23.0046C205.889 23.0046 203.949 22.5946 202.329 21.7746C200.729 20.9546 199.579 19.7546 198.879 18.1746C198.459 17.2546 198.249 16.1546 198.249 14.8746C198.249 14.2146 198.299 13.6146 198.399 13.0746C198.499 12.5346 198.659 12.0246 198.879 11.5446C199.579 9.9646 200.729 8.7746 202.329 7.9746C203.949 7.1546 205.889 6.7446 208.149 6.7446C210.409 6.7446 212.339 7.1446 213.939 7.9446C215.539 8.7446 216.679 9.9046 217.359 11.4246C217.799 12.4246 218.019 13.5746 218.019 14.8746C218.019 16.1546 217.799 17.2946 217.359 18.2946C216.679 19.8146 215.529 20.9846 213.909 21.8046C212.309 22.6046 210.389 23.0046 208.149 23.0046ZM208.149 18.2346C209.569 18.2346 210.499 17.7446 210.939 16.7646C211.139 16.3046 211.239 15.6746 211.239 14.8746C211.239 14.0346 211.139 13.4046 210.939 12.9846C210.499 11.9846 209.569 11.4846 208.149 11.4846C207.449 11.4846 206.859 11.6146 206.379 11.8746C205.919 12.1346 205.579 12.5146 205.359 13.0146C205.159 13.4346 205.059 14.0546 205.059 14.8746C205.059 15.6746 205.159 16.2846 205.359 16.7046C205.579 17.2046 205.919 17.5846 206.379 17.8446C206.859 18.1046 207.449 18.2346 208.149 18.2346ZM242.392 6.7446C244.252 6.7446 245.672 7.2646 246.652 8.3046C247.652 9.3246 248.152 10.7846 248.152 12.6846V22.4646H241.702V13.9146C241.702 12.2946 240.972 11.4846 239.512 11.4846C238.732 11.4846 238.142 11.7146 237.742 12.1746C237.362 12.6146 237.172 13.2546 237.172 14.0946V22.4646H230.722V13.9146C230.722 12.2946 229.992 11.4846 228.532 11.4846C227.772 11.4846 227.192 11.7146 226.792 12.1746C226.412 12.6346 226.222 13.2846 226.222 14.1246V22.4646H219.772V7.2546H226.222V9.2346C226.842 8.4746 227.612 7.8746 228.532 7.4346C229.472 6.9746 230.552 6.7446 231.772 6.7446C232.972 6.7446 233.992 6.9646 234.832 7.4046C235.672 7.8446 236.292 8.4846 236.692 9.3246C237.432 8.4646 238.262 7.8246 239.182 7.4046C240.102 6.9646 241.172 6.7446 242.392 6.7446Z" fill="white"/>
</svg>
