<svg width="95" height="95" viewBox="0 0 95 95" fill="none" xmlns="http://www.w3.org/2000/svg">
<g filter="url(#filter0_ddi_5925_17010)">
<path d="M32.8805 16.5579C33.0516 15.4181 34.3668 14.8618 35.3038 15.5329L42.5435 20.7181C43.2112 21.1963 44.1364 21.0675 44.648 20.4251L50.1961 13.4596C50.9141 12.5581 52.3313 12.7339 52.8072 13.7836L56.4844 21.894C56.8235 22.6419 57.6892 22.9929 58.4534 22.6925L66.7409 19.4342C67.8135 19.0125 68.9529 19.8733 68.8402 21.0204L67.9696 29.8827C67.8893 30.7 68.4634 31.4368 69.2756 31.5588L78.0819 32.8807C79.2217 33.0518 79.7779 34.3671 79.1068 35.3041L73.9217 42.5437C73.4435 43.2114 73.5723 44.1366 74.2147 44.6482L81.1802 50.1963C82.0817 50.9143 81.9058 52.3315 80.8561 52.8074L72.7458 56.4846C71.9979 56.8237 71.6468 57.6894 71.9473 58.4536L75.2056 66.7411C75.6273 67.8138 74.7664 68.9531 73.6194 68.8404L64.7571 67.9698C63.9398 67.8895 63.2029 68.4637 63.081 69.2758L61.759 78.0821C61.5879 79.2219 60.2727 79.7782 59.3357 79.1071L52.096 73.9219C51.4284 73.4437 50.5031 73.5725 49.9915 74.2149L44.4435 81.1804C43.7254 82.0819 42.3083 81.906 41.8323 80.8564L38.1552 72.746C37.8161 71.9981 36.9504 71.647 36.1861 71.9475L27.8986 75.2058C26.826 75.6275 25.6866 74.7666 25.7993 73.6196L26.67 64.7573C26.7503 63.94 26.1761 63.2031 25.364 63.0812L16.5577 61.7592C15.4179 61.5881 14.8616 60.2729 15.5327 59.3359L20.7179 52.0962C21.1961 51.4286 21.0672 50.5034 20.4249 49.9917L13.4594 44.4437C12.5579 43.7256 12.7337 42.3085 13.7834 41.8326L21.8937 38.1554C22.6417 37.8163 22.9927 36.9506 22.6923 36.1863L19.434 27.8988C19.0122 26.8262 19.8731 25.6869 21.0201 25.7995L29.8825 26.6702C30.6998 26.7505 31.4366 26.1763 31.5585 25.3642L32.8805 16.5579Z" fill="url(#paint0_linear_5925_17010)"/>
<path d="M32.3084 16.4717C32.5438 14.9048 34.3524 14.1397 35.6407 15.0622L42.8799 20.2476C43.2972 20.5464 43.8759 20.4658 44.1957 20.0643L49.7439 13.099C50.7313 11.8597 52.6798 12.102 53.3341 13.5452L57.0111 21.6548C57.223 22.1221 57.7639 22.342 58.2414 22.1545L66.5292 18.8962C68.004 18.3164 69.571 19.4997 69.4162 21.0767L68.5449 29.9394C68.4948 30.45 68.8537 30.91 69.361 30.9864L78.1674 32.3089C79.7346 32.5441 80.4996 34.3528 79.5769 35.6412L74.3915 42.8804C74.0928 43.2977 74.1734 43.8764 74.5748 44.1962L81.5411 49.744C82.7802 50.7314 82.538 52.6799 81.0948 53.3342L72.9843 57.0116C72.5172 57.2236 72.298 57.7641 72.4855 58.2416L75.7438 66.5293C76.3236 68.004 75.1402 69.5709 73.5633 69.4163L64.7006 68.545C64.1898 68.4948 63.7289 68.854 63.6527 69.3615L62.3311 78.1676C62.0959 79.7347 60.2872 80.4997 58.9988 79.577L51.7587 74.392C51.3415 74.0935 50.7635 74.1737 50.4438 74.5749L44.896 81.5412C43.9086 82.7805 41.9601 82.5381 41.3058 81.0949L37.6284 72.9844C37.4163 72.5172 36.8751 72.2983 36.3975 72.486L28.1107 75.7439C26.6359 76.3237 25.069 75.1404 25.2237 73.5634L26.0941 64.7011C26.1443 64.1903 25.7852 63.7293 25.2776 63.6531L16.4715 62.3316C14.9046 62.0963 14.1397 60.2876 15.0621 58.9993L20.2471 51.7592C20.5459 51.3419 20.4657 50.7641 20.0642 50.4443L13.0988 44.8961C11.8594 43.9088 12.1018 41.9602 13.5451 41.3059L21.6547 37.6289C22.1222 37.4169 22.3418 36.8753 22.154 36.3977L18.8961 28.1108C18.3163 26.636 19.4995 25.069 21.0766 25.2238L29.9389 26.0942C30.4497 26.1444 30.9098 25.7857 30.986 25.2781L32.3084 16.4717Z" stroke="#FDE480" stroke-width="1.15676" stroke-linejoin="round"/>
</g>
<path d="M30.5426 54.3209C31.344 54.0691 32.0446 53.9361 32.6442 53.9218C33.2438 53.9075 33.776 54.0372 34.2408 54.311C34.7027 54.5754 35.1092 55.0058 35.4603 55.6019C35.8115 56.1981 36.1422 56.9901 36.4525 57.978C36.7599 58.9565 36.9415 59.7953 36.9973 60.4945C37.0502 61.1844 36.9643 61.7745 36.7395 62.2649C36.5118 62.746 36.1479 63.1521 35.6478 63.4833C35.1478 63.8144 34.497 64.1059 33.6956 64.3576C32.9034 64.6065 32.2029 64.7395 31.594 64.7567C30.9944 64.771 30.4636 64.646 30.0017 64.3815C29.5369 64.1078 29.1289 63.6728 28.7778 63.0766C28.4238 62.4711 28.0931 61.6791 27.7857 60.7006C27.4753 59.7127 27.2937 58.8739 27.2408 58.184C27.1879 57.4942 27.2754 56.9087 27.5031 56.4276C27.7278 55.9372 28.0903 55.5264 28.5903 55.1953C29.0997 54.8612 29.7505 54.5697 30.5426 54.3209ZM31.1706 56.3199C30.7605 56.4487 30.4653 56.6335 30.2851 56.8745C30.1141 57.1125 30.0508 57.4651 30.0952 57.9324C30.1396 58.3997 30.2877 59.034 30.5395 59.8355C30.7912 60.6369 31.0325 61.242 31.2633 61.6507C31.4941 62.0595 31.7477 62.3126 32.024 62.4101C32.3097 62.5046 32.6576 62.4875 33.0676 62.3587C33.4776 62.2299 33.7681 62.0465 33.9391 61.8085C34.1194 61.5675 34.1827 61.2149 34.129 60.7505C34.0846 60.2833 33.9365 59.6489 33.6847 58.8474C33.4329 58.046 33.1916 57.4409 32.9609 57.0322C32.7394 56.6205 32.4858 56.3674 32.2001 56.2729C31.9238 56.1754 31.5806 56.191 31.1706 56.3199ZM39.0374 51.8212C39.5593 51.6573 40.0966 51.4936 40.6494 51.3302C41.1992 51.1575 41.7395 51.0031 42.2701 50.8672C42.8072 50.7189 43.2988 50.6054 43.7451 50.5267L44.2033 52.4254L40.7785 53.5012C40.5642 53.5686 40.414 53.6772 40.328 53.8271C40.2483 53.9647 40.2378 54.1267 40.2964 54.3131L42.514 61.3724L39.886 62.198L37.4971 54.5935C37.3009 53.9691 37.3432 53.403 37.6239 52.895C37.9139 52.3841 38.3851 52.0262 39.0374 51.8212ZM38.3547 56.4435L44.3097 54.5728L44.8674 56.3481L38.9124 58.2188L38.3547 56.4435ZM47.5142 49.1583C48.0361 48.9944 48.5734 48.8307 49.1262 48.6673C49.676 48.4946 50.2163 48.3402 50.7469 48.2042C51.284 48.056 51.7756 47.9425 52.2219 47.8638L52.6801 49.7625L49.2553 50.8383C49.041 50.9057 48.8908 51.0143 48.8048 51.1642C48.7251 51.3018 48.7146 51.4638 48.7732 51.6502L50.9908 58.7095L48.3628 59.535L45.9739 51.9306C45.7777 51.3062 45.82 50.74 46.1007 50.2321C46.3907 49.7212 46.8619 49.3632 47.5142 49.1583ZM46.8315 53.7806L52.7865 51.9099L53.3441 53.6852L47.3892 55.5559L46.8315 53.7806ZM55.9211 46.5174C56.4617 46.3476 57.0115 46.1748 57.5706 45.9992C58.1391 45.8206 58.698 45.6604 59.2473 45.5185C59.803 45.3645 60.3179 45.2436 60.7921 45.1561L61.2547 47.0688L57.6482 48.2017C57.4432 48.2662 57.3023 48.3718 57.2257 48.5188C57.146 48.6564 57.1355 48.8185 57.194 49.0048L58.5993 53.478C58.6578 53.6644 58.7606 53.796 58.9075 53.8727C59.0516 53.94 59.2261 53.9415 59.4311 53.8771L63.0376 52.7442L63.7519 54.5778C63.3099 54.7678 62.8183 54.9632 62.2773 55.1639C61.7426 55.3523 61.1911 55.5358 60.6226 55.7144C60.0664 55.8994 59.518 56.0768 58.9775 56.2466C58.3345 56.4486 57.7526 56.4215 57.2318 56.1653C56.7111 55.9091 56.3541 55.4734 56.1609 54.8584L54.4044 49.2669C54.2082 48.6425 54.252 48.081 54.5356 47.5823C54.8163 47.0743 55.2781 46.7194 55.9211 46.5174ZM55.2093 50.9491L61.318 49.0301L61.8757 50.8054L55.767 52.7244L55.2093 50.9491ZM66.4848 43.0914C67.3887 42.8074 68.1528 42.6646 68.7768 42.6631C69.4009 42.6616 69.9093 42.8296 70.302 43.1669C70.7011 43.4921 71.0192 44.0321 71.2563 44.7869C71.3851 45.197 71.4416 45.5888 71.4259 45.9623C71.4194 46.3329 71.3101 46.6693 71.0979 46.9715C70.8827 47.2644 70.5416 47.5149 70.0746 47.723L70.1009 47.8069C70.2838 47.7699 70.4878 47.7672 70.7128 47.799C70.947 47.8277 71.1817 47.923 71.4168 48.0846C71.6583 48.234 71.8734 48.4787 72.0621 48.8187L73.7943 51.5459L71.0404 52.411L69.4465 49.7326C69.2876 49.4549 69.1236 49.2914 68.9545 49.2421C68.7825 49.1835 68.5614 49.1966 68.2911 49.2815C67.6172 49.483 67.0613 49.6525 66.6233 49.7901C66.1853 49.9277 65.811 50.0402 65.5006 50.1274C65.1994 50.2118 64.9108 50.2871 64.6347 50.3534L64.1014 48.509L67.7638 47.3585C68.0993 47.2531 68.3453 47.1399 68.5019 47.0191C68.6678 46.8953 68.7617 46.7378 68.7835 46.5467C68.8025 46.3462 68.7636 46.0922 68.667 45.7846C68.5675 45.4678 68.4541 45.2372 68.3268 45.0929C68.1996 44.9486 68.0325 44.873 67.8256 44.8664C67.6281 44.8568 67.3616 44.9046 67.0261 45.01C66.1035 45.2999 65.3221 45.5504 64.682 45.7618C64.0513 45.9701 63.6223 46.1203 63.3952 46.2121L62.6146 44.4607C63.01 44.2853 63.3865 44.1312 63.7441 43.9984C64.1017 43.8656 64.4949 43.7318 64.9235 43.5972C65.3586 43.4503 65.879 43.2817 66.4848 43.0914ZM65.1867 43.6527L68.2167 53.2981L65.6446 54.1061L62.6146 44.4607L65.1867 43.6527Z" fill="white"/>
<path d="M22.3647 43.7484L24.1521 49.4382C24.2001 49.5909 24.2881 49.6974 24.4161 49.7578C24.5416 49.8106 24.6884 49.8106 24.8563 49.7579L27.5581 48.9091L28.1683 50.491C27.6174 50.7395 27.0265 50.9671 26.3954 51.1737C25.7667 51.388 25.1432 51.5922 24.525 51.7864C23.9526 51.9662 23.4558 51.9462 23.0345 51.7264C22.6209 51.5041 22.3338 51.1373 22.1731 50.6259L20.2239 44.4209L22.3647 43.7484ZM29.1064 41.6305L31.5879 49.5299L29.4585 50.1989L26.977 42.2995L29.1064 41.6305ZM39.3598 38.4095C39.8559 38.2537 40.1907 38.4252 40.3642 38.9242L42.906 45.9744L40.9483 46.5894L38.7256 40.3948L38.5424 40.4524L38.9268 45.1994C38.9895 45.666 38.7843 45.9737 38.3111 46.1223L37.109 46.5C36.6435 46.6462 36.2954 46.5124 36.0647 46.0985L33.6654 41.9845L33.4823 42.042L35.2356 48.384L33.2779 48.999L31.3199 41.7653C31.1846 41.2544 31.3612 40.9222 31.8496 40.7688L33.7729 40.1646C34.2309 40.0207 34.5726 40.1608 34.798 40.5847L36.6806 43.8548C36.7763 44.026 36.8667 44.2072 36.952 44.3984C37.0424 44.5796 37.1303 44.7659 37.2155 44.9571L37.3415 44.9176C37.3097 44.7095 37.2752 44.5065 37.2382 44.3085C37.1987 44.1029 37.1681 43.8987 37.1464 43.6959L36.79 39.9589C36.7401 39.4798 36.948 39.1672 37.4135 39.0209L39.3598 38.4095ZM44.2433 36.8754L46.7248 44.7748L44.5954 45.4437L42.1139 37.5443L44.2433 36.8754ZM49.986 35.0714L52.4676 42.9707L50.3153 43.6469L47.8337 35.7475L49.986 35.0714ZM52.2642 34.3557L52.7785 35.9928L46.0583 38.1039L45.544 36.4668L52.2642 34.3557ZM55.2676 33.3745C55.7103 33.2354 56.1606 33.0939 56.6185 32.9501C57.0841 32.8038 57.5418 32.6726 57.9917 32.5564C58.4468 32.4302 58.8685 32.3313 59.2569 32.2596L59.6357 33.8261L56.6821 34.7539C56.5142 34.8067 56.3988 34.8932 56.336 35.0136C56.2708 35.1263 56.2621 35.259 56.3101 35.4117L57.4609 39.0751C57.5089 39.2278 57.593 39.3355 57.7134 39.3983C57.8314 39.4535 57.9743 39.4547 58.1422 39.402L61.0959 38.4741L61.6809 39.9758C61.3189 40.1315 60.9163 40.2915 60.4732 40.4558C60.0353 40.6102 59.5836 40.7605 59.118 40.9067C58.6625 41.0582 58.2134 41.2035 57.7707 41.3425C57.2441 41.508 56.7675 41.4858 56.341 41.2759C55.9146 41.0661 55.6222 40.7093 55.4639 40.2056L54.0254 35.6263C53.8647 35.1149 53.9006 34.655 54.1328 34.2466C54.3627 33.8306 54.741 33.5399 55.2676 33.3745ZM54.6846 37.004L59.6875 35.4324L60.1443 36.8863L55.1413 38.458L54.6846 37.004ZM63.9649 30.5542C64.6136 30.3504 65.1835 30.2427 65.6746 30.231C66.1733 30.2169 66.6079 30.3193 66.9786 30.5383C67.3569 30.7548 67.6898 31.1073 67.9774 31.5955C68.2702 32.0738 68.5412 32.7098 68.7906 33.5035C69.0399 34.2973 69.1825 34.9778 69.2181 35.5452C69.2591 36.1026 69.1863 36.5783 68.9998 36.9723C68.8209 37.3639 68.5229 37.6965 68.1057 37.9701C67.6962 38.2413 67.1671 38.4788 66.5183 38.6826C65.8848 38.8816 65.2974 39.0536 64.7559 39.1985C64.2221 39.341 63.7138 39.4714 63.231 39.5895L63.627 37.767C63.909 37.7036 64.2546 37.616 64.6639 37.5042C65.0708 37.3847 65.5223 37.2471 66.0184 37.0913C66.3466 36.9882 66.5807 36.8391 66.7207 36.6442C66.8684 36.4469 66.924 36.1569 66.8876 35.7742C66.8513 35.3915 66.73 34.872 66.5238 34.2156C66.3176 33.5592 66.12 33.0637 65.931 32.7289C65.742 32.3942 65.5305 32.1881 65.2965 32.1107C65.0702 32.0308 64.7929 32.0425 64.4648 32.1456C63.9992 32.2918 63.5832 32.4225 63.2169 32.5376C62.8582 32.6503 62.5109 32.7593 62.1751 32.8648L60.7495 31.6901C61.2207 31.5085 61.7122 31.3248 62.224 31.1388C62.7435 30.9505 63.3237 30.7556 63.9649 30.5542ZM62.9018 31.014L65.3833 38.9134L63.231 39.5895L60.7495 31.6901L62.9018 31.014Z" fill="white"/>
<defs>
<filter id="filter0_ddi_5925_17010" x="11.7207" y="11.3356" width="74.2827" height="74.2824" filterUnits="userSpaceOnUse" color-interpolation-filters="sRGB">
<feFlood flood-opacity="0" result="BackgroundImageFix"/>
<feColorMatrix in="SourceAlpha" type="matrix" values="0 0 0 0 0 0 0 0 0 0 0 0 0 0 0 0 0 0 127 0" result="hardAlpha"/>
<feOffset dx="1.54234" dy="1.15676"/>
<feGaussianBlur stdDeviation="0.771172"/>
<feComposite in2="hardAlpha" operator="out"/>
<feColorMatrix type="matrix" values="0 0 0 0 0 0 0 0 0 0 0 0 0 0 0 0 0 0 0.4 0"/>
<feBlend mode="normal" in2="BackgroundImageFix" result="effect1_dropShadow_5925_17010"/>
<feColorMatrix in="SourceAlpha" type="matrix" values="0 0 0 0 0 0 0 0 0 0 0 0 0 0 0 0 0 0 127 0" result="hardAlpha"/>
<feOffset dy="0.385586"/>
<feComposite in2="hardAlpha" operator="out"/>
<feColorMatrix type="matrix" values="0 0 0 0 0.717647 0 0 0 0 0.317647 0 0 0 0 0.00784314 0 0 0 1 0"/>
<feBlend mode="normal" in2="effect1_dropShadow_5925_17010" result="effect2_dropShadow_5925_17010"/>
<feBlend mode="normal" in="SourceGraphic" in2="effect2_dropShadow_5925_17010" result="shape"/>
<feColorMatrix in="SourceAlpha" type="matrix" values="0 0 0 0 0 0 0 0 0 0 0 0 0 0 0 0 0 0 127 0" result="hardAlpha"/>
<feOffset dy="0.385586"/>
<feGaussianBlur stdDeviation="0.385586"/>
<feComposite in2="hardAlpha" operator="arithmetic" k2="-1" k3="1"/>
<feColorMatrix type="matrix" values="0 0 0 0 0.992157 0 0 0 0 0.894118 0 0 0 0 0.501961 0 0 0 0.4 0"/>
<feBlend mode="plus-lighter" in2="shape" result="effect3_innerShadow_5925_17010"/>
</filter>
<linearGradient id="paint0_linear_5925_17010" x1="33.2547" y1="14.0653" x2="61.3849" y2="80.5747" gradientUnits="userSpaceOnUse">
<stop stop-color="#D000FF"/>
<stop offset="1" stop-color="#A30078"/>
</linearGradient>
</defs>
</svg>
